{"canvas_config": {"height": 1440, "ratio": "original", "width": 1920}, "color_space": 0, "config": {"adjust_max_index": 1, "attachment_info": [], "combination_max_index": 1, "export_range": null, "extract_audio_last_index": 1, "lyrics_recognition_id": "", "lyrics_sync": true, "lyrics_taskinfo": [], "maintrack_adsorb": true, "material_save_mode": 0, "original_sound_last_index": 1, "record_audio_last_index": 1, "sticker_max_index": 1, "subtitle_recognition_id": "", "subtitle_sync": true, "subtitle_taskinfo": [], "system_font_list": [], "video_mute": false, "zoom_info_params": null}, "cover": null, "create_time": 0, "duration": 44050000, "extra_info": null, "fps": 30.0, "free_render_index_mode_on": false, "group_container": null, "id": "A7D8DC1E-0A4E-47FA-8868-479A6ABE956E", "keyframes": {"adjusts": [], "audios": [], "effects": [], "filters": [], "handwrites": [], "stickers": [], "texts": [], "videos": []}, "last_modified_platform": {"app_id": 3704, "app_source": "lv", "app_version": "4.0.1", "device_id": "5eb02bb727a9d40e5309672fb2f5351d", "hard_disk_id": "b69b53e17269d17eca09763fc488c338", "mac_address": "555d67ed98f70204e113e2bb99d53788,5d32528c80c82b4341e333334b5ebf1b", "os": "windows", "os_version": "10.0.22621"}, "materials": {"audio_balances": [], "audio_effects": [], "audio_fades": [], "audios": [{"app_id": 0, "category_id": "", "category_name": "local", "check_flag": 1, "duration": 5860000, "effect_id": "", "formula_id": "", "id": "5396A880-1CFE-4E59-B11F-B33E5CAB6F46", "intensifies_path": "", "local_material_id": "80F8BCA6-0332-4C89-A14F-BF759BA2B3BF", "music_id": "B3CA9AD0-4936-4E0B-8925-64093BDC0137", "name": "0.wav", "path": "D:\\workspace\\sft\\text_to_video\\text_to_vedio\\static\\data\\data_audio\\lingyiwanwu_02\\lingyiwanwu_02\\0.wav", "resource_id": "", "source_platform": 0, "team_id": "", "text_id": "", "tone_category_id": "", "tone_category_name": "", "tone_effect_id": "", "tone_effect_name": "", "tone_speaker": "", "tone_type": "", "type": "extract_music", "video_id": "", "wave_points": []}, {"app_id": 0, "category_id": "", "category_name": "local", "check_flag": 1, "duration": 5310000, "effect_id": "", "formula_id": "", "id": "365831F6-BB2B-4C39-A41A-B1A97841D89E", "intensifies_path": "", "local_material_id": "2B545AFB-2470-4AE7-8710-D20DC23FCCB0", "music_id": "50B9E330-976E-4694-8C51-366C245B8B4D", "name": "1.wav", "path": "D:\\workspace\\sft\\text_to_video\\text_to_vedio\\static\\data\\data_audio\\lingyiwanwu_02\\lingyiwanwu_02\\1.wav", "resource_id": "", "source_platform": 0, "team_id": "", "text_id": "", "tone_category_id": "", "tone_category_name": "", "tone_effect_id": "", "tone_effect_name": "", "tone_speaker": "", "tone_type": "", "type": "extract_music", "video_id": "", "wave_points": []}, {"app_id": 0, "category_id": "", "category_name": "local", "check_flag": 1, "duration": 10490000, "effect_id": "", "formula_id": "", "id": "06BA2589-3AB2-45C6-9932-0B92830242AB", "intensifies_path": "", "local_material_id": "92315CC9-BF31-47CA-88B5-C6FEE0D23E49", "music_id": "8B68459D-0A55-4397-B1B3-8D3E4F8CF5BA", "name": "2.wav", "path": "D:\\workspace\\sft\\text_to_video\\text_to_vedio\\static\\data\\data_audio\\lingyiwanwu_02\\lingyiwanwu_02\\2.wav", "resource_id": "", "source_platform": 0, "team_id": "", "text_id": "", "tone_category_id": "", "tone_category_name": "", "tone_effect_id": "", "tone_effect_name": "", "tone_speaker": "", "tone_type": "", "type": "extract_music", "video_id": "", "wave_points": []}, {"app_id": 0, "category_id": "", "category_name": "local", "check_flag": 1, "duration": 7350000, "effect_id": "", "formula_id": "", "id": "AF80C35F-E6D9-4998-8CF3-E34E036C538C", "intensifies_path": "", "local_material_id": "7BD5272F-8FAB-48C4-90C8-5EC8BE021999", "music_id": "0E36D19A-AF98-40C5-B833-1D0E280B460C", "name": "3.wav", "path": "D:\\workspace\\sft\\text_to_video\\text_to_vedio\\static\\data\\data_audio\\lingyiwanwu_02\\lingyiwanwu_02\\3.wav", "resource_id": "", "source_platform": 0, "team_id": "", "text_id": "", "tone_category_id": "", "tone_category_name": "", "tone_effect_id": "", "tone_effect_name": "", "tone_speaker": "", "tone_type": "", "type": "extract_music", "video_id": "", "wave_points": []}, {"app_id": 0, "category_id": "", "category_name": "local", "check_flag": 1, "duration": 6780000, "effect_id": "", "formula_id": "", "id": "133CF306-F2DA-478D-9BF9-2E787F7D7E2A", "intensifies_path": "", "local_material_id": "73E71BC0-F240-4028-BE1F-A0FCC6F2A752", "music_id": "A5E49078-2E31-4028-8105-3C482AFE6B5A", "name": "4.wav", "path": "D:\\workspace\\sft\\text_to_video\\text_to_vedio\\static\\data\\data_audio\\lingyiwanwu_02\\lingyiwanwu_02\\4.wav", "resource_id": "", "source_platform": 0, "team_id": "", "text_id": "", "tone_category_id": "", "tone_category_name": "", "tone_effect_id": "", "tone_effect_name": "", "tone_speaker": "", "tone_type": "", "type": "extract_music", "video_id": "", "wave_points": []}, {"app_id": 0, "category_id": "", "category_name": "local", "check_flag": 1, "duration": 3660000, "effect_id": "", "formula_id": "", "id": "90050C79-0D6C-4EAC-8EE8-58FAA556065B", "intensifies_path": "", "local_material_id": "570ECEAE-AF8D-4D8F-A8BA-276A4C67DC1D", "music_id": "DF554213-4092-4A47-8235-70B2C4B142B9", "name": "5.wav", "path": "D:\\workspace\\sft\\text_to_video\\text_to_vedio\\static\\data\\data_audio\\lingyiwanwu_02\\lingyiwanwu_02\\5.wav", "resource_id": "", "source_platform": 0, "team_id": "", "text_id": "", "tone_category_id": "", "tone_category_name": "", "tone_effect_id": "", "tone_effect_name": "", "tone_speaker": "", "tone_type": "", "type": "extract_music", "video_id": "", "wave_points": []}, {"app_id": 0, "category_id": "", "category_name": "local", "check_flag": 1, "duration": 4600000, "effect_id": "", "formula_id": "", "id": "CDD1A518-CADC-41A8-A85A-D8E0148F573A", "intensifies_path": "", "local_material_id": "EF3B52E9-BB86-4ABE-889C-9CCA254452A4", "music_id": "AED75A97-6932-4C06-BD14-A6815F694069", "name": "6.wav", "path": "D:\\workspace\\sft\\text_to_video\\text_to_vedio\\static\\data\\data_audio\\lingyiwanwu_02\\lingyiwanwu_02\\6.wav", "resource_id": "", "source_platform": 0, "team_id": "", "text_id": "", "tone_category_id": "", "tone_category_name": "", "tone_effect_id": "", "tone_effect_name": "", "tone_speaker": "", "tone_type": "", "type": "extract_music", "video_id": "", "wave_points": []}], "beats": [{"ai_beats": {"beats_path": "", "beats_url": "", "melody_path": "", "melody_percents": [0.0], "melody_url": ""}, "enable_ai_beats": false, "gear": 404, "id": "8DA2552D-4005-41f6-AA75-41D979FDFAC4", "mode": 404, "type": "beats", "user_beats": [], "user_delete_ai_beats": null}, {"ai_beats": {"beats_path": "", "beats_url": "", "melody_path": "", "melody_percents": [0.0], "melody_url": ""}, "enable_ai_beats": false, "gear": 404, "id": "29D1F485-A90A-4cae-8A97-D320E18E6776", "mode": 404, "type": "beats", "user_beats": [], "user_delete_ai_beats": null}], "canvases": [{"album_image": "", "blur": 0.0, "color": "", "id": "B763B79D-1862-4115-B9F3-B3C5E0201C93", "image": "", "image_id": "", "image_name": "", "source_platform": 0, "team_id": "", "type": "canvas_color"}, {"album_image": "", "blur": 0.0, "color": "", "id": "BF72BADF-C479-4DEA-BAE5-0EBA3D72FEAA", "image": "", "image_id": "", "image_name": "", "source_platform": 0, "team_id": "", "type": "canvas_color"}, {"album_image": "", "blur": 0.0, "color": "", "id": "A238A9CF-3683-437A-9FAF-C218515D848B", "image": "", "image_id": "", "image_name": "", "source_platform": 0, "team_id": "", "type": "canvas_color"}, {"album_image": "", "blur": 0.0, "color": "", "id": "4DF16D18-8B60-4F88-B429-E16328AFB76B", "image": "", "image_id": "", "image_name": "", "source_platform": 0, "team_id": "", "type": "canvas_color"}, {"album_image": "", "blur": 0.0, "color": "", "id": "77926FF4-F0F2-4421-B3DE-2F41D0174748", "image": "", "image_id": "", "image_name": "", "source_platform": 0, "team_id": "", "type": "canvas_color"}, {"album_image": "", "blur": 0.0, "color": "", "id": "E8A7581C-0236-447B-9F28-4F51169BFA75", "image": "", "image_id": "", "image_name": "", "source_platform": 0, "team_id": "", "type": "canvas_color"}, {"album_image": "", "blur": 0.0, "color": "", "id": "97155FE4-7D07-4788-8C97-D7687E3512B0", "image": "", "image_id": "", "image_name": "", "source_platform": 0, "team_id": "", "type": "canvas_color"}], "chromas": [], "color_curves": [], "drafts": [], "effects": [], "green_screens": [], "handwrites": [], "hsl": [], "images": [], "log_color_wheels": [], "manual_deformations": [], "masks": [], "material_animations": [{"animations": [], "id": "C7B6B9A1-F96C-4903-B0D2-F4F460A6D712", "type": "sticker_animation"}, {"animations": [], "id": "ECFEA509-ECA8-42FF-BD57-AA3F50A74787", "type": "sticker_animation"}, {"animations": [], "id": "C0B6F37E-977D-4D66-862F-BC97E1F6784D", "type": "sticker_animation"}, {"animations": [], "id": "227C0B01-FF57-454F-B574-813931121F41", "type": "sticker_animation"}, {"animations": [], "id": "8B6D7154-7AFE-4D1E-A4F1-CAE45193F7C3", "type": "sticker_animation"}, {"animations": [], "id": "4A3587D3-ED7E-4034-9431-96DEF5DC04C9", "type": "sticker_animation"}, {"animations": [], "id": "4B08B293-B598-4B2F-A027-431793DBCB14", "type": "sticker_animation"}], "placeholders": [], "plugin_effects": [], "primary_color_wheels": [], "realtime_denoises": [], "sound_channel_mappings": [{"audio_channel_mapping": 0, "id": "0B577EAD-440C-427b-A285-DC9C336793BB", "is_config_open": false, "type": ""}, {"audio_channel_mapping": 0, "id": "8BB33C53-8528-4588-88F6-11C835A5F119", "is_config_open": false, "type": ""}, {"audio_channel_mapping": 0, "id": "A6B17EC8-5D6A-4d38-B2AA-7EE19A0E9931", "is_config_open": false, "type": ""}, {"audio_channel_mapping": 0, "id": "C604251D-F699-43e0-A833-C47E097CF459", "is_config_open": false, "type": ""}], "speeds": [{"curve_speed": null, "id": "09E2F044-7018-4DA6-9E4F-61CA7D8BAA97", "mode": 0, "speed": 1.0, "type": "speed"}, {"curve_speed": null, "id": "9D3A75A5-41C6-46C4-83A8-73D635F227F9", "mode": 0, "speed": 1.0, "type": "speed"}, {"curve_speed": null, "id": "80C11C63-0CA0-46E7-96DF-4CB9A9F20AEE", "mode": 0, "speed": 1.0, "type": "speed"}, {"curve_speed": null, "id": "1E7AF4BA-366A-435B-ACBD-A028DEF433A2", "mode": 0, "speed": 1.0, "type": "speed"}, {"curve_speed": null, "id": "696F4FF0-3700-4282-8E96-D2F2B4890230", "mode": 0, "speed": 1.0, "type": "speed"}, {"curve_speed": null, "id": "4730B375-CCD3-48C3-AFCF-D5FAEA6DA098", "mode": 0, "speed": 1.0, "type": "speed"}, {"curve_speed": null, "id": "265A1CF8-DBD3-4FCB-ABE6-C28C42AFADFA", "mode": 0, "speed": 1.0, "type": "speed"}, {"curve_speed": null, "id": "59709A8D-7338-453B-9DE0-316F76A0A0EF", "mode": 0, "speed": 1.0, "type": "speed"}, {"curve_speed": null, "id": "03DFF7F1-90D0-41E8-B684-7CAA4B886B80", "mode": 0, "speed": 1.0, "type": "speed"}, {"curve_speed": null, "id": "61DDBB5F-0696-4BE8-80D4-BA08A401DCB6", "mode": 0, "speed": 1.0, "type": "speed"}, {"curve_speed": null, "id": "3523A201-9193-49AB-AD77-4BAE47A483A1", "mode": 0, "speed": 1.0, "type": "speed"}, {"curve_speed": null, "id": "744FB281-47CB-4E93-B507-3A76B5E0AEDF", "mode": 0, "speed": 1.0, "type": "speed"}, {"curve_speed": null, "id": "724A3280-C8D1-47CA-96EB-252014570253", "mode": 0, "speed": 1.0, "type": "speed"}, {"curve_speed": null, "id": "4B38120A-860E-4654-BE79-9DDCB689A197", "mode": 0, "speed": 1.0, "type": "speed"}], "stickers": [], "tail_leaders": [], "text_templates": [], "texts": [], "transitions": [], "video_effects": [], "video_trackings": [], "videos": [{"audio_fade": null, "cartoon_path": "", "category_id": "", "category_name": "local", "check_flag": 63487, "crop": {"lower_left_x": 0.0, "lower_left_y": 1.0, "lower_right_x": 1.0, "lower_right_y": 1.0, "upper_left_x": 0.0, "upper_left_y": 0.0, "upper_right_x": 1.0, "upper_right_y": 0.0}, "crop_ratio": "free", "crop_scale": 1.0, "duration": 5860000, "extra_type_option": 0, "formula_id": "", "freeze": null, "gameplay": null, "has_audio": false, "height": 768, "id": "193150AF-9CC7-4B3B-8483-202224E19FE8", "intensifies_audio_path": "", "intensifies_path": "", "is_unified_beauty_mode": false, "local_id": "", "local_material_id": "", "material_id": "", "material_name": "0.png", "material_url": "", "matting": {"flag": 0, "has_use_quick_brush": false, "has_use_quick_eraser": false, "interactiveTime": [], "path": "", "strokes": []}, "media_path": "", "object_locked": null, "path": "D:\\workspace\\sft\\text_to_video\\text_to_vedio\\static\\data\\data_image\\lingyiwanwu_02\\lingyiwanwu_02\\0.png", "picture_from": "none", "picture_set_category_id": "", "picture_set_category_name": "", "reverse_intensifies_path": "", "reverse_path": "", "source_platform": 0, "stable": null, "team_id": "", "type": "photo", "video_algorithm": {"algorithms": [], "deflicker": null, "motion_blur_config": null, "noise_reduction": null, "path": "", "time_range": null}, "width": 1024}, {"audio_fade": null, "cartoon_path": "", "category_id": "", "category_name": "local", "check_flag": 63487, "crop": {"lower_left_x": 0.0, "lower_left_y": 1.0, "lower_right_x": 1.0, "lower_right_y": 1.0, "upper_left_x": 0.0, "upper_left_y": 0.0, "upper_right_x": 1.0, "upper_right_y": 0.0}, "crop_ratio": "free", "crop_scale": 1.0, "duration": 5310000, "extra_type_option": 0, "formula_id": "", "freeze": null, "gameplay": null, "has_audio": false, "height": 768, "id": "2CDDF58B-F6CC-4A46-86AA-2061ED430D82", "intensifies_audio_path": "", "intensifies_path": "", "is_unified_beauty_mode": false, "local_id": "", "local_material_id": "", "material_id": "", "material_name": "1.png", "material_url": "", "matting": {"flag": 0, "has_use_quick_brush": false, "has_use_quick_eraser": false, "interactiveTime": [], "path": "", "strokes": []}, "media_path": "", "object_locked": null, "path": "D:\\workspace\\sft\\text_to_video\\text_to_vedio\\static\\data\\data_image\\lingyiwanwu_02\\lingyiwanwu_02\\1.png", "picture_from": "none", "picture_set_category_id": "", "picture_set_category_name": "", "reverse_intensifies_path": "", "reverse_path": "", "source_platform": 0, "stable": null, "team_id": "", "type": "photo", "video_algorithm": {"algorithms": [], "deflicker": null, "motion_blur_config": null, "noise_reduction": null, "path": "", "time_range": null}, "width": 1024}, {"audio_fade": null, "cartoon_path": "", "category_id": "", "category_name": "local", "check_flag": 63487, "crop": {"lower_left_x": 0.0, "lower_left_y": 1.0, "lower_right_x": 1.0, "lower_right_y": 1.0, "upper_left_x": 0.0, "upper_left_y": 0.0, "upper_right_x": 1.0, "upper_right_y": 0.0}, "crop_ratio": "free", "crop_scale": 1.0, "duration": 10490000, "extra_type_option": 0, "formula_id": "", "freeze": null, "gameplay": null, "has_audio": false, "height": 768, "id": "7E82BFAB-5AA7-4038-8DF3-74F5BDC27669", "intensifies_audio_path": "", "intensifies_path": "", "is_unified_beauty_mode": false, "local_id": "", "local_material_id": "", "material_id": "", "material_name": "2.png", "material_url": "", "matting": {"flag": 0, "has_use_quick_brush": false, "has_use_quick_eraser": false, "interactiveTime": [], "path": "", "strokes": []}, "media_path": "", "object_locked": null, "path": "D:\\workspace\\sft\\text_to_video\\text_to_vedio\\static\\data\\data_image\\lingyiwanwu_02\\lingyiwanwu_02\\2.png", "picture_from": "none", "picture_set_category_id": "", "picture_set_category_name": "", "reverse_intensifies_path": "", "reverse_path": "", "source_platform": 0, "stable": null, "team_id": "", "type": "photo", "video_algorithm": {"algorithms": [], "deflicker": null, "motion_blur_config": null, "noise_reduction": null, "path": "", "time_range": null}, "width": 1024}, {"audio_fade": null, "cartoon_path": "", "category_id": "", "category_name": "local", "check_flag": 63487, "crop": {"lower_left_x": 0.0, "lower_left_y": 1.0, "lower_right_x": 1.0, "lower_right_y": 1.0, "upper_left_x": 0.0, "upper_left_y": 0.0, "upper_right_x": 1.0, "upper_right_y": 0.0}, "crop_ratio": "free", "crop_scale": 1.0, "duration": 7350000, "extra_type_option": 0, "formula_id": "", "freeze": null, "gameplay": null, "has_audio": false, "height": 768, "id": "5A0C0353-1B9C-4814-A164-F0FA5C0C729A", "intensifies_audio_path": "", "intensifies_path": "", "is_unified_beauty_mode": false, "local_id": "", "local_material_id": "", "material_id": "", "material_name": "3.png", "material_url": "", "matting": {"flag": 0, "has_use_quick_brush": false, "has_use_quick_eraser": false, "interactiveTime": [], "path": "", "strokes": []}, "media_path": "", "object_locked": null, "path": "D:\\workspace\\sft\\text_to_video\\text_to_vedio\\static\\data\\data_image\\lingyiwanwu_02\\lingyiwanwu_02\\3.png", "picture_from": "none", "picture_set_category_id": "", "picture_set_category_name": "", "reverse_intensifies_path": "", "reverse_path": "", "source_platform": 0, "stable": null, "team_id": "", "type": "photo", "video_algorithm": {"algorithms": [], "deflicker": null, "motion_blur_config": null, "noise_reduction": null, "path": "", "time_range": null}, "width": 1024}, {"audio_fade": null, "cartoon_path": "", "category_id": "", "category_name": "local", "check_flag": 63487, "crop": {"lower_left_x": 0.0, "lower_left_y": 1.0, "lower_right_x": 1.0, "lower_right_y": 1.0, "upper_left_x": 0.0, "upper_left_y": 0.0, "upper_right_x": 1.0, "upper_right_y": 0.0}, "crop_ratio": "free", "crop_scale": 1.0, "duration": 6780000, "extra_type_option": 0, "formula_id": "", "freeze": null, "gameplay": null, "has_audio": false, "height": 768, "id": "62543A95-6606-4A4C-8466-396E39EEB09F", "intensifies_audio_path": "", "intensifies_path": "", "is_unified_beauty_mode": false, "local_id": "", "local_material_id": "", "material_id": "", "material_name": "4.png", "material_url": "", "matting": {"flag": 0, "has_use_quick_brush": false, "has_use_quick_eraser": false, "interactiveTime": [], "path": "", "strokes": []}, "media_path": "", "object_locked": null, "path": "D:\\workspace\\sft\\text_to_video\\text_to_vedio\\static\\data\\data_image\\lingyiwanwu_02\\lingyiwanwu_02\\4.png", "picture_from": "none", "picture_set_category_id": "", "picture_set_category_name": "", "reverse_intensifies_path": "", "reverse_path": "", "source_platform": 0, "stable": null, "team_id": "", "type": "photo", "video_algorithm": {"algorithms": [], "deflicker": null, "motion_blur_config": null, "noise_reduction": null, "path": "", "time_range": null}, "width": 1024}, {"audio_fade": null, "cartoon_path": "", "category_id": "", "category_name": "local", "check_flag": 63487, "crop": {"lower_left_x": 0.0, "lower_left_y": 1.0, "lower_right_x": 1.0, "lower_right_y": 1.0, "upper_left_x": 0.0, "upper_left_y": 0.0, "upper_right_x": 1.0, "upper_right_y": 0.0}, "crop_ratio": "free", "crop_scale": 1.0, "duration": 3660000, "extra_type_option": 0, "formula_id": "", "freeze": null, "gameplay": null, "has_audio": false, "height": 768, "id": "1D3280D1-C930-47DC-BA91-0AA9441A39DA", "intensifies_audio_path": "", "intensifies_path": "", "is_unified_beauty_mode": false, "local_id": "", "local_material_id": "", "material_id": "", "material_name": "5.png", "material_url": "", "matting": {"flag": 0, "has_use_quick_brush": false, "has_use_quick_eraser": false, "interactiveTime": [], "path": "", "strokes": []}, "media_path": "", "object_locked": null, "path": "D:\\workspace\\sft\\text_to_video\\text_to_vedio\\static\\data\\data_image\\lingyiwanwu_02\\lingyiwanwu_02\\5.png", "picture_from": "none", "picture_set_category_id": "", "picture_set_category_name": "", "reverse_intensifies_path": "", "reverse_path": "", "source_platform": 0, "stable": null, "team_id": "", "type": "photo", "video_algorithm": {"algorithms": [], "deflicker": null, "motion_blur_config": null, "noise_reduction": null, "path": "", "time_range": null}, "width": 1024}, {"audio_fade": null, "cartoon_path": "", "category_id": "", "category_name": "local", "check_flag": 63487, "crop": {"lower_left_x": 0.0, "lower_left_y": 1.0, "lower_right_x": 1.0, "lower_right_y": 1.0, "upper_left_x": 0.0, "upper_left_y": 0.0, "upper_right_x": 1.0, "upper_right_y": 0.0}, "crop_ratio": "free", "crop_scale": 1.0, "duration": 4600000, "extra_type_option": 0, "formula_id": "", "freeze": null, "gameplay": null, "has_audio": false, "height": 768, "id": "5FE1F3EC-EDD8-453A-826E-126208A2805C", "intensifies_audio_path": "", "intensifies_path": "", "is_unified_beauty_mode": false, "local_id": "", "local_material_id": "", "material_id": "", "material_name": "6.png", "material_url": "", "matting": {"flag": 0, "has_use_quick_brush": false, "has_use_quick_eraser": false, "interactiveTime": [], "path": "", "strokes": []}, "media_path": "", "object_locked": null, "path": "D:\\workspace\\sft\\text_to_video\\text_to_vedio\\static\\data\\data_image\\lingyiwanwu_02\\lingyiwanwu_02\\6.png", "picture_from": "none", "picture_set_category_id": "", "picture_set_category_name": "", "reverse_intensifies_path": "", "reverse_path": "", "source_platform": 0, "stable": null, "team_id": "", "type": "photo", "video_algorithm": {"algorithms": [], "deflicker": null, "motion_blur_config": null, "noise_reduction": null, "path": "", "time_range": null}, "width": 1024}]}, "mutable_config": null, "name": "", "new_version": "71.0.0", "platform": {"app_id": 3704, "app_source": "lv", "app_version": "4.0.1", "device_id": "5eb02bb727a9d40e5309672fb2f5351d", "hard_disk_id": "b69b53e17269d17eca09763fc488c338", "mac_address": "555d67ed98f70204e113e2bb99d53788,5d32528c80c82b4341e333334b5ebf1b", "os": "windows", "os_version": "10.0.22621"}, "relationships": [], "render_index_track_mode_on": false, "retouch_cover": null, "source": "default", "static_cover_image_path": "", "tracks": [{"attribute": 0, "flag": 0, "id": "8ECCE12E-7501-4BB6-9602-7D998829B4FB", "segments": [{"cartoon": false, "clip": {"alpha": 1.0, "flip": {"horizontal": false, "vertical": false}, "rotation": 0.0, "scale": {"x": 1.0, "y": 1.0}, "transform": {"x": 0.0, "y": 0.0}}, "enable_adjust": true, "enable_color_curves": true, "enable_color_wheels": true, "enable_lut": true, "enable_smart_color_adjust": false, "extra_material_refs": ["09E2F044-7018-4DA6-9E4F-61CA7D8BAA97", "B763B79D-1862-4115-B9F3-B3C5E0201C93", "C7B6B9A1-F96C-4903-B0D2-F4F460A6D712", "C7B6B9A1-F96C-4903-B0D2-F4F460A6D712"], "group_id": "", "hdr_settings": {"intensity": 1.0, "mode": 1, "nits": 1000}, "id": "B9E63695-1947-4B2A-B789-3996D349E6F2", "intensifies_audio": false, "is_placeholder": false, "is_tone_modify": false, "keyframe_refs": [], "last_nonzero_volume": 1.0, "material_id": "193150AF-9CC7-4B3B-8483-202224E19FE8", "render_index": 0, "reverse": false, "source_timerange": {"duration": 5860000.0, "start": 0}, "speed": 1.0, "target_timerange": {"duration": 5860000.0, "start": 0}, "template_id": "", "template_scene": "default", "track_attribute": 0, "track_render_index": 0, "visible": true, "volume": 1.0}, {"cartoon": false, "clip": {"alpha": 1.0, "flip": {"horizontal": false, "vertical": false}, "rotation": 0.0, "scale": {"x": 1.0, "y": 1.0}, "transform": {"x": 0.0, "y": 0.0}}, "enable_adjust": true, "enable_color_curves": true, "enable_color_wheels": true, "enable_lut": true, "enable_smart_color_adjust": false, "extra_material_refs": ["80C11C63-0CA0-46E7-96DF-4CB9A9F20AEE", "BF72BADF-C479-4DEA-BAE5-0EBA3D72FEAA", "ECFEA509-ECA8-42FF-BD57-AA3F50A74787", "ECFEA509-ECA8-42FF-BD57-AA3F50A74787"], "group_id": "", "hdr_settings": {"intensity": 1.0, "mode": 1, "nits": 1000}, "id": "9EA8815D-98AF-4029-BF39-34326E051803", "intensifies_audio": false, "is_placeholder": false, "is_tone_modify": false, "keyframe_refs": [], "last_nonzero_volume": 1.0, "material_id": "2CDDF58B-F6CC-4A46-86AA-2061ED430D82", "render_index": 0, "reverse": false, "source_timerange": {"duration": 5310000.0, "start": 0}, "speed": 1.0, "target_timerange": {"duration": 5310000.0, "start": 5860000.0}, "template_id": "", "template_scene": "default", "track_attribute": 0, "track_render_index": 0, "visible": true, "volume": 1.0}, {"cartoon": false, "clip": {"alpha": 1.0, "flip": {"horizontal": false, "vertical": false}, "rotation": 0.0, "scale": {"x": 1.0, "y": 1.0}, "transform": {"x": 0.0, "y": 0.0}}, "enable_adjust": true, "enable_color_curves": true, "enable_color_wheels": true, "enable_lut": true, "enable_smart_color_adjust": false, "extra_material_refs": ["696F4FF0-3700-4282-8E96-D2F2B4890230", "A238A9CF-3683-437A-9FAF-C218515D848B", "C0B6F37E-977D-4D66-862F-BC97E1F6784D", "C0B6F37E-977D-4D66-862F-BC97E1F6784D"], "group_id": "", "hdr_settings": {"intensity": 1.0, "mode": 1, "nits": 1000}, "id": "33C421AE-5C44-492A-BDED-CFDA2AED8815", "intensifies_audio": false, "is_placeholder": false, "is_tone_modify": false, "keyframe_refs": [], "last_nonzero_volume": 1.0, "material_id": "7E82BFAB-5AA7-4038-8DF3-74F5BDC27669", "render_index": 0, "reverse": false, "source_timerange": {"duration": 10490000.0, "start": 0}, "speed": 1.0, "target_timerange": {"duration": 10490000.0, "start": 11170000.0}, "template_id": "", "template_scene": "default", "track_attribute": 0, "track_render_index": 0, "visible": true, "volume": 1.0}, {"cartoon": false, "clip": {"alpha": 1.0, "flip": {"horizontal": false, "vertical": false}, "rotation": 0.0, "scale": {"x": 1.0, "y": 1.0}, "transform": {"x": 0.0, "y": 0.0}}, "enable_adjust": true, "enable_color_curves": true, "enable_color_wheels": true, "enable_lut": true, "enable_smart_color_adjust": false, "extra_material_refs": ["265A1CF8-DBD3-4FCB-ABE6-C28C42AFADFA", "4DF16D18-8B60-4F88-B429-E16328AFB76B", "227C0B01-FF57-454F-B574-813931121F41", "227C0B01-FF57-454F-B574-813931121F41"], "group_id": "", "hdr_settings": {"intensity": 1.0, "mode": 1, "nits": 1000}, "id": "63CFECD6-EE9B-4510-B63E-E43C6A3E8C40", "intensifies_audio": false, "is_placeholder": false, "is_tone_modify": false, "keyframe_refs": [], "last_nonzero_volume": 1.0, "material_id": "5A0C0353-1B9C-4814-A164-F0FA5C0C729A", "render_index": 0, "reverse": false, "source_timerange": {"duration": 7350000.0, "start": 0}, "speed": 1.0, "target_timerange": {"duration": 7350000.0, "start": 21660000.0}, "template_id": "", "template_scene": "default", "track_attribute": 0, "track_render_index": 0, "visible": true, "volume": 1.0}, {"cartoon": false, "clip": {"alpha": 1.0, "flip": {"horizontal": false, "vertical": false}, "rotation": 0.0, "scale": {"x": 1.0, "y": 1.0}, "transform": {"x": 0.0, "y": 0.0}}, "enable_adjust": true, "enable_color_curves": true, "enable_color_wheels": true, "enable_lut": true, "enable_smart_color_adjust": false, "extra_material_refs": ["03DFF7F1-90D0-41E8-B684-7CAA4B886B80", "77926FF4-F0F2-4421-B3DE-2F41D0174748", "8B6D7154-7AFE-4D1E-A4F1-CAE45193F7C3", "8B6D7154-7AFE-4D1E-A4F1-CAE45193F7C3"], "group_id": "", "hdr_settings": {"intensity": 1.0, "mode": 1, "nits": 1000}, "id": "34B93F9C-9855-4864-A513-52509375D9B4", "intensifies_audio": false, "is_placeholder": false, "is_tone_modify": false, "keyframe_refs": [], "last_nonzero_volume": 1.0, "material_id": "62543A95-6606-4A4C-8466-396E39EEB09F", "render_index": 0, "reverse": false, "source_timerange": {"duration": 6780000.0, "start": 0}, "speed": 1.0, "target_timerange": {"duration": 6780000.0, "start": 29010000.0}, "template_id": "", "template_scene": "default", "track_attribute": 0, "track_render_index": 0, "visible": true, "volume": 1.0}, {"cartoon": false, "clip": {"alpha": 1.0, "flip": {"horizontal": false, "vertical": false}, "rotation": 0.0, "scale": {"x": 1.0, "y": 1.0}, "transform": {"x": 0.0, "y": 0.0}}, "enable_adjust": true, "enable_color_curves": true, "enable_color_wheels": true, "enable_lut": true, "enable_smart_color_adjust": false, "extra_material_refs": ["3523A201-9193-49AB-AD77-4BAE47A483A1", "E8A7581C-0236-447B-9F28-4F51169BFA75", "4A3587D3-ED7E-4034-9431-96DEF5DC04C9", "4A3587D3-ED7E-4034-9431-96DEF5DC04C9"], "group_id": "", "hdr_settings": {"intensity": 1.0, "mode": 1, "nits": 1000}, "id": "9F023A5C-AC71-4C04-889A-A7FA4468D251", "intensifies_audio": false, "is_placeholder": false, "is_tone_modify": false, "keyframe_refs": [], "last_nonzero_volume": 1.0, "material_id": "1D3280D1-C930-47DC-BA91-0AA9441A39DA", "render_index": 0, "reverse": false, "source_timerange": {"duration": 3660000.0, "start": 0}, "speed": 1.0, "target_timerange": {"duration": 3660000.0, "start": 35790000.0}, "template_id": "", "template_scene": "default", "track_attribute": 0, "track_render_index": 0, "visible": true, "volume": 1.0}, {"cartoon": false, "clip": {"alpha": 1.0, "flip": {"horizontal": false, "vertical": false}, "rotation": 0.0, "scale": {"x": 1.0, "y": 1.0}, "transform": {"x": 0.0, "y": 0.0}}, "enable_adjust": true, "enable_color_curves": true, "enable_color_wheels": true, "enable_lut": true, "enable_smart_color_adjust": false, "extra_material_refs": ["724A3280-C8D1-47CA-96EB-252014570253", "97155FE4-7D07-4788-8C97-D7687E3512B0", "4B08B293-B598-4B2F-A027-431793DBCB14", "4B08B293-B598-4B2F-A027-431793DBCB14"], "group_id": "", "hdr_settings": {"intensity": 1.0, "mode": 1, "nits": 1000}, "id": "432A3FA6-D641-458F-A8D5-F0349FD28AD9", "intensifies_audio": false, "is_placeholder": false, "is_tone_modify": false, "keyframe_refs": [], "last_nonzero_volume": 1.0, "material_id": "5FE1F3EC-EDD8-453A-826E-126208A2805C", "render_index": 0, "reverse": false, "source_timerange": {"duration": 4600000.0, "start": 0}, "speed": 1.0, "target_timerange": {"duration": 4600000.0, "start": 39450000.0}, "template_id": "", "template_scene": "default", "track_attribute": 0, "track_render_index": 0, "visible": true, "volume": 1.0}], "type": "video"}, {"attribute": 0, "flag": 0, "id": "C1673DAA-01F1-4F0C-8795-D86C81EF946E", "segments": [{"cartoon": false, "clip": null, "enable_adjust": false, "enable_color_curves": true, "enable_color_wheels": true, "enable_lut": false, "enable_smart_color_adjust": false, "extra_material_refs": ["9D3A75A5-41C6-46C4-83A8-73D635F227F9", "9D3A75A5-41C6-46C4-83A8-73D635F227F9", "9D3A75A5-41C6-46C4-83A8-73D635F227F9"], "group_id": "", "hdr_settings": null, "id": "F47ED61E-FB0E-4A95-BD83-5FDEF20D1744", "intensifies_audio": false, "is_placeholder": false, "is_tone_modify": false, "keyframe_refs": [], "last_nonzero_volume": 1.0, "material_id": "5396A880-1CFE-4E59-B11F-B33E5CAB6F46", "render_index": 0, "reverse": false, "source_timerange": {"duration": 5860000.0, "start": 0}, "speed": 1.0, "target_timerange": {"duration": 5860000.0, "start": 0}, "template_id": "", "template_scene": "default", "track_attribute": 0, "track_render_index": 0, "visible": true, "volume": 1.0}, {"cartoon": false, "clip": null, "enable_adjust": false, "enable_color_curves": true, "enable_color_wheels": true, "enable_lut": false, "enable_smart_color_adjust": false, "extra_material_refs": ["1E7AF4BA-366A-435B-ACBD-A028DEF433A2", "1E7AF4BA-366A-435B-ACBD-A028DEF433A2", "1E7AF4BA-366A-435B-ACBD-A028DEF433A2"], "group_id": "", "hdr_settings": null, "id": "E7DCEBCE-A71D-48A0-846A-0505E8320189", "intensifies_audio": false, "is_placeholder": false, "is_tone_modify": false, "keyframe_refs": [], "last_nonzero_volume": 1.0, "material_id": "365831F6-BB2B-4C39-A41A-B1A97841D89E", "render_index": 0, "reverse": false, "source_timerange": {"duration": 5310000.0, "start": 0}, "speed": 1.0, "target_timerange": {"duration": 5310000.0, "start": 5860000.0}, "template_id": "", "template_scene": "default", "track_attribute": 0, "track_render_index": 0, "visible": true, "volume": 1.0}, {"cartoon": false, "clip": null, "enable_adjust": false, "enable_color_curves": true, "enable_color_wheels": true, "enable_lut": false, "enable_smart_color_adjust": false, "extra_material_refs": ["4730B375-CCD3-48C3-AFCF-D5FAEA6DA098", "4730B375-CCD3-48C3-AFCF-D5FAEA6DA098", "4730B375-CCD3-48C3-AFCF-D5FAEA6DA098"], "group_id": "", "hdr_settings": null, "id": "3803EDE7-C121-427D-8630-F75AE76763A6", "intensifies_audio": false, "is_placeholder": false, "is_tone_modify": false, "keyframe_refs": [], "last_nonzero_volume": 1.0, "material_id": "06BA2589-3AB2-45C6-9932-0B92830242AB", "render_index": 0, "reverse": false, "source_timerange": {"duration": 10490000.0, "start": 0}, "speed": 1.0, "target_timerange": {"duration": 10490000.0, "start": 11170000.0}, "template_id": "", "template_scene": "default", "track_attribute": 0, "track_render_index": 0, "visible": true, "volume": 1.0}, {"cartoon": false, "clip": null, "enable_adjust": false, "enable_color_curves": true, "enable_color_wheels": true, "enable_lut": false, "enable_smart_color_adjust": false, "extra_material_refs": ["59709A8D-7338-453B-9DE0-316F76A0A0EF", "59709A8D-7338-453B-9DE0-316F76A0A0EF", "59709A8D-7338-453B-9DE0-316F76A0A0EF"], "group_id": "", "hdr_settings": null, "id": "8860C453-F29F-44C9-A202-BFF7F3F9A642", "intensifies_audio": false, "is_placeholder": false, "is_tone_modify": false, "keyframe_refs": [], "last_nonzero_volume": 1.0, "material_id": "AF80C35F-E6D9-4998-8CF3-E34E036C538C", "render_index": 0, "reverse": false, "source_timerange": {"duration": 7350000.0, "start": 0}, "speed": 1.0, "target_timerange": {"duration": 7350000.0, "start": 21660000.0}, "template_id": "", "template_scene": "default", "track_attribute": 0, "track_render_index": 0, "visible": true, "volume": 1.0}, {"cartoon": false, "clip": null, "enable_adjust": false, "enable_color_curves": true, "enable_color_wheels": true, "enable_lut": false, "enable_smart_color_adjust": false, "extra_material_refs": ["61DDBB5F-0696-4BE8-80D4-BA08A401DCB6", "61DDBB5F-0696-4BE8-80D4-BA08A401DCB6", "61DDBB5F-0696-4BE8-80D4-BA08A401DCB6"], "group_id": "", "hdr_settings": null, "id": "83299F71-84B6-4174-8B6A-1951B5A7B348", "intensifies_audio": false, "is_placeholder": false, "is_tone_modify": false, "keyframe_refs": [], "last_nonzero_volume": 1.0, "material_id": "133CF306-F2DA-478D-9BF9-2E787F7D7E2A", "render_index": 0, "reverse": false, "source_timerange": {"duration": 6780000.0, "start": 0}, "speed": 1.0, "target_timerange": {"duration": 6780000.0, "start": 29010000.0}, "template_id": "", "template_scene": "default", "track_attribute": 0, "track_render_index": 0, "visible": true, "volume": 1.0}, {"cartoon": false, "clip": null, "enable_adjust": false, "enable_color_curves": true, "enable_color_wheels": true, "enable_lut": false, "enable_smart_color_adjust": false, "extra_material_refs": ["744FB281-47CB-4E93-B507-3A76B5E0AEDF", "744FB281-47CB-4E93-B507-3A76B5E0AEDF", "744FB281-47CB-4E93-B507-3A76B5E0AEDF"], "group_id": "", "hdr_settings": null, "id": "82DA749E-C1FE-46EA-9E3B-371E9577EE1F", "intensifies_audio": false, "is_placeholder": false, "is_tone_modify": false, "keyframe_refs": [], "last_nonzero_volume": 1.0, "material_id": "90050C79-0D6C-4EAC-8EE8-58FAA556065B", "render_index": 0, "reverse": false, "source_timerange": {"duration": 3660000.0, "start": 0}, "speed": 1.0, "target_timerange": {"duration": 3660000.0, "start": 35790000.0}, "template_id": "", "template_scene": "default", "track_attribute": 0, "track_render_index": 0, "visible": true, "volume": 1.0}, {"cartoon": false, "clip": null, "enable_adjust": false, "enable_color_curves": true, "enable_color_wheels": true, "enable_lut": false, "enable_smart_color_adjust": false, "extra_material_refs": ["4B38120A-860E-4654-BE79-9DDCB689A197", "4B38120A-860E-4654-BE79-9DDCB689A197", "4B38120A-860E-4654-BE79-9DDCB689A197"], "group_id": "", "hdr_settings": null, "id": "5EDFC61D-5067-4FFB-B445-18D8C42187B0", "intensifies_audio": false, "is_placeholder": false, "is_tone_modify": false, "keyframe_refs": [], "last_nonzero_volume": 1.0, "material_id": "CDD1A518-CADC-41A8-A85A-D8E0148F573A", "render_index": 0, "reverse": false, "source_timerange": {"duration": 4600000.0, "start": 0}, "speed": 1.0, "target_timerange": {"duration": 4600000.0, "start": 39450000.0}, "template_id": "", "template_scene": "default", "track_attribute": 0, "track_render_index": 0, "visible": true, "volume": 1.0}], "type": "audio"}], "update_time": 0, "version": 360000}